HIERARCHY
ROOT pelvis
{
  OFFSET 0 100 0
  CHANNELS 6 Xposition Yposition Zposition Zrotation Xrotation Yrotation
  JOINT pelvis_right_femur
  {
    OFFSET -10.78128 -3.44521 -0.5502486
    CHANNELS 3 Zrotation Xrotation Yrotation
    JOINT right_femur_tibia
    {
      OFFSET -0.8047443 -44.0398 -0.1307829
      CHANNELS 3 Zrotation Xrotation Yrotation
      JOINT right_tibia_foot
      {
        OFFSET 3.006224 -47.83518 -5
        CHANNELS 3 Zrotation Xrotation Yrotation
        End Site
        {
          OFFSET 0 -5 15
        }
      }
    }
  }
  JOINT pelvis_left_femur
  {
    OFFSET 10.78128 -3.44521 -0.5502486
    CHANNELS 3 Zrotation Xrotation Yrotation
    JOINT left_femur_tibia
    {
      OFFSET 0.8047443 -44.0398 -0.1307829
      CHANNELS 3 Zrotation Xrotation Yrotation
      JOINT left_tibia_foot
      {
        OFFSET -4.370144 -48.10324 -4.275266
        CHANNELS 3 Zrotation Xrotation Yrotation
        End Site
        {
          OFFSET 0 -5 15
        }
      }
    }
  }
  JOINT pelvis_spine1
  {
    OFFSET 0 6.468898 -3.129235
    CHANNELS 3 Zrotation Xrotation Yrotation
    JOINT spine1
    {
      OFFSET 0 23.15396 4.99043
      CHANNELS 3 Zrotation Xrotation Yrotation
      JOINT spine2
      {
        OFFSET 0 20.79997 -5.064912
        CHANNELS 3 Zrotation Xrotation Yrotation
        JOINT neck
        {
          OFFSET 0 14.38658 9.616178
          CHANNELS 3 Zrotation Xrotation Yrotation
          End Site
          {
            OFFSET 0 20 0
          }
        }
      }
      JOINT right_manubrium
      {
        OFFSET -5.722621 16.35077 3.967754
        CHANNELS 3 Zrotation Xrotation Yrotation
        JOINT right_clavicle
        {
          OFFSET -13.16364 1.694482 -4.693211
          CHANNELS 3 Zrotation Xrotation Yrotation
          JOINT right_humerus
          {
            OFFSET -28.5034 -0.3100689 -2.792744
            CHANNELS 3 Zrotation Xrotation Yrotation
            JOINT right_radius
            {
              OFFSET -25.15693 0.02248979 -1.271978
              CHANNELS 3 Zrotation Xrotation Yrotation
              End Site
              {
                OFFSET -15 0 0
              }
            }
          }
        }
      }
      JOINT left_manubrium
      {
        OFFSET 5.722621 16.35077 3.967754
        CHANNELS 3 Zrotation Xrotation Yrotation
        JOINT left_clavicle
        {
          OFFSET 13.16364 1.694482 -4.693211
          CHANNELS 3 Zrotation Xrotation Yrotation
          JOINT left_humerus
          {
            OFFSET 29.39168 -1.063119 -2.237045
            CHANNELS 3 Zrotation Xrotation Yrotation
            JOINT left_radius
            {
              OFFSET 24.59957 -0.9528479 0.9047498
              CHANNELS 3 Zrotation Xrotation Yrotation
              End Site
              {
                OFFSET 15 -0 -0
              }
            }
          }
        }
      }
    }
  }
}
MOTION
Frames: 9
Frame Time: 0.0416666666667
0 103.5113 0 0.5010522 -0.6696302 0.1785932 3.756119 -19.07045 8.936591 -0 39.09567 -0 -6.8791 -11.86471 -2.58914 -6.973018 9.498688 -21.77679 -0 5.198932 -0 11.26598 -15.85253 26.86834 -3.322391 -3.088351 4.589479 2.055388 10.17657 -7.205538 1.738995 22.04095 6.709285 2.928059 -25.01679 10.02517 5.142176 -20.11782 11.38435 86.55521 34.4569 -18.09587 -0 0 15.56377 -7.731586 8.076879 4.756817 6.031652 -20.09644 -1.701047 -92.49967 23.86108 20.9317 0 0 -15.42934 13.3323 16.17588 -0.4550882
0.3570147 104.356 2.086011 0.3490296 -0.2955248 0.3522333 4.117227 -20.25942 8.831209 -0 37.51146 -0 -6.733078 -11.65047 -2.493682 -6.855945 9.763576 -21.50844 -0 5.71599 -0 10.92092 -16.2296 26.43666 -3.240679 -2.946591 4.553768 2.224174 10.10498 -7.322763 1.687075 21.83625 6.798866 2.995693 -25.26185 10.02415 5.253071 -19.98653 11.43328 86.53034 34.61809 -18.36383 -0 0 15.36428 -7.695517 8.189738 4.784482 6.141064 -20.2011 -1.628739 -92.34019 23.72547 20.68982 0 0 -15.96285 13.24803 15.87879 -0.40221
0.7016722 105.0819 4.50449 -0.1644021 1.274895 0.5512227 5.434041 -24.89859 8.599942 -0 31.40024 -0 -6.032068 -11.7087 -2.051815 -6.5041 10.56479 -20.57027 -0 6.912854 -0 10.196 -17.49198 25.04864 -2.9699 -2.503929 4.551954 2.829744 9.818113 -7.770967 1.478356 21.04275 7.126826 3.182447 -26.15469 10.07618 5.719468 -19.55734 11.604 86.35782 35.50863 -19.35001 -0 0 14.75316 -7.335629 8.617405 4.750119 6.630849 -20.67264 -1.241107 -91.45172 22.88954 19.49272 0 0 -18.37582 13.64574 14.59594 -0.9790062
1.036195 105.7379 6.890337 -0.4116406 2.654871 0.7206532 6.499769 -27.48791 9.588924 -0 28.12846 -0 -5.138806 -13.53947 -1.92587 -6.358652 10.83075 -20.70697 -0 7.337333 -0 10.28534 -17.86499 24.8418 -2.8882 -2.559454 4.842138 3.244085 9.657996 -8.189623 1.334246 20.33402 7.320631 3.30579 -26.81858 10.16505 6.52492 -19.48002 11.7484 85.86059 37.19751 -20.10717 -0 0 15.15159 -6.267181 8.990003 4.270072 6.878998 -20.79972 -0.7238334 -91.19755 22.72514 19.34907 0 0 -19.95366 13.79126 13.74408 -1.075572
1.339808 106.4473 9.089787 -0.5561257 3.609881 0.7867617 7.490689 -28.37906 11.29014 -0 26.73218 -0 -4.340537 -15.61794 -2.187093 -6.209604 11.08408 -21.51588 -0 8.294424 -0 10.11255 -17.79739 25.16501 -2.854525 -2.864805 5.154944 3.547284 9.600402 -8.570895 1.288167 19.74207 7.390109 3.44622 -27.30166 10.21415 7.404038 -19.56435 11.85797 85.35366 38.90608 -20.80889 -0 0 16.07669 -4.989372 9.281444 3.592441 6.877365 -20.59907 -0.2832038 -91.76535 23.49347 20.25499 0 0 -20.44697 12.83754 13.47273 0.154326
1.617131 107.197 11.1947 -0.521977 3.326146 0.7771376 7.481173 -27.36089 11.72448 -0 27.58426 -0 -4.43243 -15.69212 -2.532002 -6.140196 11.32636 -22.00133 -0 8.932455 -0 9.587856 -17.66411 25.39333 -2.864564 -3.02008 5.107624 3.521711 9.630394 -8.585766 1.343095 19.81231 7.323744 3.49499 -27.20106 10.15152 7.469382 -19.62761 11.84058 85.36672 38.8725 -20.92383 -0 0 16.3708 -4.853531 9.228827 3.45814 6.687742 -20.36685 -0.374247 -92.47804 24.42755 21.07855 0 0 -19.78436 11.58315 13.95609 1.596552
1.881165 107.9659 13.41967 -0.5655712 2.712171 0.7791447 7.19268 -26.53291 11.08261 -0 28.18308 -0 -4.987069 -14.00252 -2.711988 -6.020092 11.74222 -21.8609 -0 9.519924 -0 8.426197 -18.00444 24.90344 -2.83108 -2.833394 4.737872 3.470064 9.564381 -8.452821 1.385762 20.10734 7.301944 3.565831 -27.02146 10.02486 7.103504 -19.48398 11.77948 85.6301 37.89514 -20.78932 -0 0 15.94879 -5.516633 9.058892 3.834606 6.511329 -20.20313 -0.7187838 -93.03267 25.24017 21.48655 0 0 -18.916 10.11208 14.51319 3.133251
2.148597 108.7037 15.95622 -0.749565 2.32373 0.8526075 7.029701 -26.82573 9.881943 -0 27.47382 -0 -5.567828 -11.39151 -2.637308 -5.838738 12.21318 -21.09357 -0 10.14636 -0 6.971434 -18.74235 23.72044 -2.728547 -2.374864 4.250127 3.513488 9.427456 -8.339642 1.371703 20.30405 7.374476 3.673559 -27.00069 9.890198 6.634624 -19.16402 11.74079 85.96227 36.72465 -20.65577 -0 0 15.07109 -6.555686 8.970913 4.508141 6.46886 -20.20792 -1.080758 -93.13154 25.53514 21.30001 0 0 -18.48371 8.978672 14.67142 4.212457
2.417727 109.3663 18.89308 -1.051584 2.348191 1.004401 7.176542 -28.24459 8.719631 -0 25.17231 -0 -5.922119 -8.8237 -2.472622 -5.571604 12.82338 -20.04166 -0 10.99661 -0 5.328451 -19.70092 22.12861 -2.558701 -1.834847 3.786281 3.694197 9.249312 -8.363686 1.305968 20.26296 7.518002 3.822024 -27.1769 9.757709 6.293533 -18.75039 11.74404 86.25968 35.84114 -20.78928 -0 0 14.10152 -7.544594 9.041554 5.188174 6.551094 -20.35489 -1.346943 -92.91577 25.55616 20.76563 0 0 -18.70568 8.000856 14.42592 5.102639
